<svg width="14" height="17" viewBox="0 0 14 17" fill="none" xmlns="http://www.w3.org/2000/svg">
<path d="M13.0729 5.5214C12.9799 5.5937 11.3481 6.5129 11.3481 8.5578C11.3481 10.9229 13.424 11.7595 13.486 11.7801C13.4757 11.8317 13.1555 12.9265 12.3912 14.0419C11.7096 15.0231 10.9969 16.0042 9.9125 16.0042C8.8281 16.0042 8.5492 15.3742 7.2995 15.3742C6.0808 15.3742 5.647 16.0249 4.6555 16.0249C3.664 16.0249 2.972 15.116 2.1768 14.0006C1.2576 12.6889 0.514 10.6543 0.514 8.723C0.514 5.6246 2.528 3.9824 4.5109 3.9824C5.5644 3.9824 6.4422 4.6744 7.1032 4.6744C7.7332 4.6744 8.7144 3.9411 9.9124 3.9411C10.3669 3.9412 11.9988 3.9826 13.0729 5.5214V5.5214ZM9.3445 2.6296C9.8402 2.0409 10.1914 1.225 10.1914 0.409098C10.1914 0.295498 10.1811 0.181898 10.1604 0.0888977C9.3548 0.119898 8.3943 0.625998 7.8159 1.2973C7.3615 1.8137 6.938 2.6296 6.938 3.4559C6.938 3.5798 6.9587 3.7038 6.969 3.7451C7.0206 3.7554 7.1033 3.7658 7.1859 3.7658C7.9089 3.7657 8.8177 3.2803 9.3445 2.6296V2.6296Z" fill="white"/>
</svg>
