<svg width="15" height="15" viewBox="0 0 15 15" fill="none" xmlns="http://www.w3.org/2000/svg">
<path d="M13.98 13.343L10.48 9.843C11.3617 8.76317 11.7949 7.38588 11.69 5.99577C11.585 4.60565 10.95 3.30898 9.91625 2.37374C8.88245 1.43849 7.52885 0.936168 6.13521 0.970576C4.74156 1.00498 3.4144 1.5735 2.42802 2.55862C1.44163 3.54374 0.871409 4.87016 0.835209 6.26376C0.799009 7.65736 1.29959 9.0116 2.23351 10.0466C3.16742 11.0816 4.46327 11.7183 5.85325 11.825C7.24323 11.9317 8.62108 11.5003 9.70204 10.62L13.202 14.12C13.2531 14.1711 13.3138 14.2116 13.3805 14.2393C13.4473 14.2669 13.5188 14.2811 13.591 14.2811C13.6633 14.2811 13.7348 14.2669 13.8016 14.2393C13.8683 14.2116 13.929 14.1711 13.98 14.12C14.0311 14.0689 14.0716 14.0083 14.0993 13.9415C14.1269 13.8748 14.1412 13.8032 14.1412 13.731C14.1412 13.6588 14.1269 13.5872 14.0993 13.5205C14.0716 13.4537 14.0311 13.3931 13.98 13.342V13.343ZM1.95904 6.418C1.95924 5.56383 2.21271 4.72889 2.68741 4.01877C3.16211 3.30864 3.83671 2.75522 4.62592 2.42848C5.41513 2.10174 6.28351 2.01635 7.12125 2.18311C7.95899 2.34987 8.72846 2.7613 9.33239 3.36536C9.93631 3.96942 10.3476 4.739 10.5141 5.57677C10.6807 6.41455 10.5951 7.28291 10.2682 8.07204C9.94125 8.86118 9.38768 9.53565 8.67744 10.0102C7.96721 10.4847 7.13221 10.738 6.27804 10.738C5.13272 10.7369 4.03463 10.2814 3.22486 9.47147C2.41509 8.66151 1.95983 7.56332 1.95904 6.418V6.418Z" fill="white"/>
</svg>
